<svg width="80" height="80" viewBox="0 0 80 80" fill="none" xmlns="http://www.w3.org/2000/svg">
<path d="M25 15C25 10.3976 28.731 6.66669 33.3333 6.66669C37.9357 6.66669 41.6667 10.3976 41.6667 15V20H45C49.6594 20 51.9891 20 53.8268 20.7612C56.2771 21.7762 58.2239 23.7229 59.2388 26.1732C60 28.0109 60 30.3406 60 35H65C69.6024 35 73.3333 38.731 73.3333 43.3334C73.3333 47.9357 69.6024 51.6667 65 51.6667H60V57.3334C60 62.9339 60 65.7341 58.9101 67.8733C57.9513 69.7549 56.4215 71.2847 54.5399 72.2434C52.4008 73.3334 49.6005 73.3334 44 73.3334H41.6667V67.5C41.6667 63.3579 38.3088 60 34.1667 60C30.0245 60 26.6667 63.3579 26.6667 67.5V73.3334H22.6667C17.0661 73.3334 14.2659 73.3334 12.1268 72.2434C10.2451 71.2847 8.71534 69.7549 7.75661 67.8733C6.66667 65.7341 6.66667 62.9339 6.66667 57.3334V51.6667H11.6667C16.269 51.6667 20 47.9357 20 43.3334C20 38.731 16.269 35 11.6667 35H6.66667C6.66667 30.3406 6.66667 28.0109 7.42788 26.1732C8.44282 23.7229 10.3896 21.7762 12.8398 20.7612C14.6775 20 17.0073 20 21.6667 20H25V15Z" stroke="#495BFF" stroke-width="4" stroke-linecap="round" stroke-linejoin="round"/>
</svg>
