<svg width="36" height="37" viewBox="0 0 36 37" fill="none" xmlns="http://www.w3.org/2000/svg">
<path d="M33 14H3M21 26.75L24.75 23L21 19.25M15 19.25L11.25 23L15 26.75M3 12.2L3 24.8C3 27.3202 3 28.5804 3.49047 29.543C3.9219 30.3897 4.61031 31.0781 5.45704 31.5095C6.41965 32 7.67976 32 10.2 32H25.8C28.3202 32 29.5804 32 30.543 31.5095C31.3897 31.0781 32.0781 30.3897 32.5095 29.543C33 28.5804 33 27.3202 33 24.8V12.2C33 9.67977 33 8.41965 32.5095 7.45704C32.0781 6.61032 31.3897 5.9219 30.543 5.49047C29.5804 5 28.3202 5 25.8 5L10.2 5C7.67976 5 6.41965 5 5.45704 5.49047C4.61031 5.9219 3.9219 6.61031 3.49047 7.45704C3 8.41965 3 9.67976 3 12.2Z" stroke="#F9F9FF" stroke-width="3" stroke-linecap="round" stroke-linejoin="round"/>
</svg>
