<svg width="36" height="37" viewBox="0 0 36 37" fill="none" xmlns="http://www.w3.org/2000/svg">
<path d="M15.7493 20.75L31.4993 5.00001M15.9407 21.2421L19.8828 31.3791C20.2301 32.2721 20.4037 32.7186 20.654 32.849C20.8709 32.962 21.1292 32.9622 21.3463 32.8494C21.5966 32.7193 21.7708 32.273 22.1191 31.3804L32.0046 6.04881C32.3191 5.24304 32.4763 4.84016 32.3903 4.58271C32.3156 4.35914 32.1402 4.18369 31.9166 4.109C31.6591 4.023 31.2563 4.18022 30.4505 4.49467L5.11887 14.3802C4.22626 14.7285 3.77995 14.9027 3.64989 15.153C3.53713 15.3701 3.53729 15.6284 3.65029 15.8453C3.78065 16.0955 4.22716 16.2692 5.12018 16.6165L15.2572 20.5586C15.4385 20.6291 15.5291 20.6644 15.6054 20.7188C15.6731 20.7671 15.7322 20.8262 15.7805 20.8939C15.8349 20.9702 15.8702 21.0608 15.9407 21.2421Z" stroke="#F9F9FF" stroke-width="4" stroke-linecap="round" stroke-linejoin="round"/>
</svg>
