<svg width="80" height="80" viewBox="0 0 80 80" fill="none" xmlns="http://www.w3.org/2000/svg">
<path d="M70 60L66.6663 63.6468C64.8983 65.5804 62.5006 66.6667 60.0005 66.6667C57.5004 66.6667 55.1027 65.5804 53.3347 63.6468C51.5642 61.7171 49.1667 60.6336 46.6674 60.6336C44.168 60.6336 41.7705 61.7171 40 63.6468M10.0001 66.6666H15.5819C17.2125 66.6666 18.0278 66.6667 18.7951 66.4824C19.4753 66.3191 20.1256 66.0498 20.7221 65.6842C21.3949 65.272 21.9714 64.6955 23.1244 63.5424L65.0002 21.6666C67.7616 18.9052 67.7616 14.4281 65.0002 11.6666C62.2388 8.90522 57.7616 8.90523 55.0002 11.6666L13.1243 53.5425C11.9713 54.6955 11.3948 55.272 10.9825 55.9447C10.617 56.5412 10.3476 57.1915 10.1843 57.8718C10.0001 58.639 10.0001 59.4543 10.0001 61.0849V66.6666Z" stroke="#495BFF" stroke-width="4" stroke-linecap="round" stroke-linejoin="round"/>
</svg>
