<svg width="80" height="80" viewBox="0 0 80 80" fill="none" xmlns="http://www.w3.org/2000/svg">
<path d="M73.3334 30H6.66669M20 58.3333L28.3334 50L20 41.6667M36.6667 58.3333L50 58.3333M6.66669 26L6.66669 54C6.66669 59.6005 6.66669 62.4008 7.75662 64.5399C8.71536 66.4215 10.2452 67.9513 12.1268 68.9101C14.2659 70 17.0662 70 22.6667 70H57.3334C62.9339 70 65.7341 70 67.8733 68.9101C69.7549 67.9513 71.2847 66.4215 72.2434 64.5399C73.3334 62.4008 73.3334 59.6005 73.3334 54V26C73.3334 20.3995 73.3334 17.5992 72.2434 15.4601C71.2847 13.5785 69.7549 12.0487 67.8733 11.0899C65.7341 10 62.9339 10 57.3334 10L22.6667 10C17.0662 10 14.2659 10 12.1268 11.0899C10.2452 12.0487 8.71536 13.5785 7.75662 15.4601C6.66669 17.5992 6.66669 20.3995 6.66669 26Z" stroke="#495BFF" stroke-width="4" stroke-linecap="round" stroke-linejoin="round"/>
</svg>
