<svg width="48" height="48" viewBox="0 0 48 48" fill="none" xmlns="http://www.w3.org/2000/svg">
<path d="M24.34 2.54393C23.9566 2.55127 23.5914 2.70874 23.3228 2.9825C23.0543 3.25627 22.9039 3.62446 22.904 4.00793V31.8359C22.904 32.2242 23.0582 32.5966 23.3328 32.8711C23.6073 33.1457 23.9797 33.2999 24.368 33.2999C24.7563 33.2999 25.1287 33.1457 25.4032 32.8711C25.6778 32.5966 25.832 32.2242 25.832 31.8359V4.00793C25.832 3.81347 25.7933 3.62095 25.7181 3.44161C25.6429 3.26228 25.5328 3.09972 25.3941 2.96343C25.2553 2.82714 25.0909 2.71985 24.9102 2.64782C24.7296 2.5758 24.5364 2.54048 24.342 2.54393H24.34ZM46.492 10.8799C46.3009 10.8855 46.1127 10.9283 45.938 11.0059L33.374 16.6139C33.117 16.7301 32.8989 16.9179 32.7459 17.1548C32.5929 17.3918 32.5115 17.6679 32.5115 17.9499C32.5115 18.232 32.5929 18.5081 32.7459 18.745C32.8989 18.982 33.117 19.1698 33.374 19.2859L45.938 24.9119C46.1267 24.9968 46.3311 25.0411 46.538 25.0419C46.8727 25.0409 47.197 24.9251 47.4567 24.714C47.7165 24.5029 47.896 24.2092 47.9655 23.8818C48.0349 23.5543 47.9901 23.213 47.8384 22.9146C47.6868 22.6162 47.4375 22.3788 47.132 22.2419L37.56 17.9519L47.132 13.6779C47.4854 13.5188 47.7615 13.2264 47.9002 12.8644C48.0388 12.5025 48.0287 12.1004 47.872 11.7459C47.7532 11.4814 47.5588 11.258 47.3132 11.1039C47.0676 10.9498 46.7818 10.8719 46.492 10.8799ZM1.492 20.9439C1.26634 20.9398 1.04279 20.988 0.838817 21.0846C0.634842 21.1812 0.455963 21.3236 0.316156 21.5008C0.176349 21.678 0.0794002 21.8851 0.0328827 22.1059C-0.0136348 22.3268 -0.00846105 22.5554 0.0479999 22.7739C3.52 36.1279 15.598 45.4559 29.414 45.4559C29.8023 45.4559 30.1747 45.3017 30.4492 45.0271C30.7238 44.7526 30.878 44.3802 30.878 43.9919C30.878 43.6037 30.7238 43.2313 30.4492 42.9567C30.1747 42.6822 29.8023 42.5279 29.414 42.5279C23.3476 42.5303 17.4517 40.5203 12.6501 36.8128C7.84845 33.1052 4.41232 27.9096 2.88 22.0399C2.79943 21.7313 2.62025 21.4573 2.3697 21.2599C2.11915 21.0624 1.81096 20.9522 1.492 20.9459V20.9439Z" fill="#6B79FD"/>
</svg>
